HIERARCHY
ROOT Hips
{
	OFFSET	0.00	0.00	0.00
	CHANNELS 6 Xposition Yposition Zposition Zrotation Xrotation Yrotation
	JOINT Spine
	{
		OFFSET	 0.00	0.01	 0.00
		CHANNELS 3 Zrotation Xrotation Yrotation
		JOINT Spine1
		{
			OFFSET	 0.00	 2.45913012437421	 0.00
			CHANNELS 3 Zrotation Xrotation Yrotation
            JOINT Neck
            {
                OFFSET	 0.00	 2.48462964506057	 0.00
                CHANNELS 3 Zrotation Xrotation Yrotation
                JOINT Head
                {
                    OFFSET	 0.00	 0.927524780924562	 0.00
                    CHANNELS 3 Zrotation Xrotation Yrotation
                    End Site 
                    {
                        OFFSET	 0.00	 1.14999962169752	 0.00
                    }
                }
            }
			JOINT LeftShoulder
			{
				OFFSET	 0.00	 2.48462964506057	 0.00
				CHANNELS 3 Zrotation Xrotation Yrotation
				JOINT LeftUpArm
				{
					OFFSET	 0.00	 1.24881979654096	 0.00
					CHANNELS 3 Zrotation Xrotation Yrotation
					JOINT LeftForeArm
					{
						OFFSET	 0.00	2.59758046908119	 0.00
						CHANNELS 3 Zrotation Xrotation Yrotation
						JOINT LeftHand
						{
							OFFSET	 0.00	2.45542024364365	 0.00
							CHANNELS 3 Zrotation Xrotation Yrotation
							JOINT LeftHandThumb 
							{
								OFFSET	 0.00	0.00	 0.00
								CHANNELS 3 Zrotation Xrotation Yrotation
								End Site
								{
									OFFSET	 0.00	0.00	1.00000003353624
								}
							}
							JOINT L_Wrist_End 
							{
								OFFSET	 0.00	0.99999967115358	 0.00
								CHANNELS 3 Zrotation Xrotation Yrotation
								End Site 
								{
									OFFSET	 0.00	 0.00	 0.00
								}
							}
						}
					}
				}
			}
			JOINT RightShoulder
			{
				OFFSET	 0.00	 2.48462964506057	 0.00
				CHANNELS 3 Zrotation Xrotation Yrotation
				JOINT RightUpArm
				{
					OFFSET	 0.00	 1.24881979654096	 0.00
					CHANNELS 3 Zrotation Xrotation Yrotation
					JOINT RightForeArm
					{
						OFFSET	 0.00	2.59758046908119	 0.00
						CHANNELS 3 Zrotation Xrotation Yrotation
						JOINT RightHand
						{
							OFFSET	 0.00	2.45542024364365	 0.00
							CHANNELS 3 Zrotation Xrotation Yrotation
							JOINT RightHandThumb 
							{
								OFFSET	 0.00	0.00	 0.00
								CHANNELS 3 Zrotation Xrotation Yrotation
								End Site
								{
									OFFSET	 0.00	0.00	1.00000003353624
								}
							}
							JOINT R_Wrist_End 
							{
								OFFSET	 0.00	0.99999967115358	 0.00
								CHANNELS 3 Zrotation Xrotation Yrotation
								End Site 
								{
									OFFSET	 0.00	 0.00	 0.00
								}
							}
						}
					}
				}
			}
		}
	}
	JOINT LeftUpLeg
	{
		OFFSET	 1.2719394002717	 0.00	 0.00
		CHANNELS 3 Zrotation Xrotation Yrotation
		JOINT LeftLowLeg
		{
			OFFSET	 0.00	-4.3429100912261	 0.00
			CHANNELS 3 Zrotation Xrotation Yrotation
			JOINT LeftFoot
			{
				OFFSET	 0.00	-4.48767017425826	 0.00
				CHANNELS 3 Zrotation Xrotation Yrotation
				JOINT LeftToeBase
                {
                    OFFSET	 0.00	0.00	 1.51507020887566
                    CHANNELS 3 Zrotation Xrotation Yrotation
                    End Site 
                    {
                        OFFSET	 0.00	0.00	 0.75000010571191
                    }
                }
			}
		}
	}
	JOINT RightUpLeg
	{
		OFFSET	 -1.2719393604653	 0.00	 0.00
		CHANNELS 3 Zrotation Xrotation Yrotation
		JOINT RightLowLeg
		{
			OFFSET	 0.00	-4.3429100912261	 0.00
			CHANNELS 3 Zrotation Xrotation Yrotation
			JOINT RightFoot
			{
				OFFSET	 0.00	-4.48767017425826	 0.00
				CHANNELS 3 Zrotation Xrotation Yrotation
				JOINT RightToeBase
                {
                    OFFSET	 0.00	0.00	 1.51507020887566
                    CHANNELS 3 Zrotation Xrotation Yrotation
                    End Site 
                    {
                        OFFSET	 0.00	0.00	 0.749999965609858
                    }
                }   
			}
		}
	}
}
MOTION 
Frames:	13 
Frame Time: 0.02 
  -0.6109049987792968 0.8488040161132813 6.697529907226563 1.8483 59.6833 2.10278 5.69294 -4.63666 -19.4042 -25.2353 36.6607 29.1228 13.2599 54.6352 -8.76124 -77.0995 -77.9564 -62.3935 -114.2978 -2.1338 1.8496 -43.7322 -12.2996 -359.588 0.0 72.0585 0.0 8.53155 -15.3569 384.352 0.0 0.0 0.0 0.0 0.0 0.0 118.8713 -2.9206 0.715892 35.8793 -1.97906 -26.4152 0.0 62.194 0.0 -12.625 -1.66933 4.82048 0.0 0.0 0.0 0.0 0.0 0.0 -7.60806 -42.7876 -10.7475 0.0 82.2739 0.0 -17.611 7.19433 7.47815 0.0 -13.0764 0.0 9.46496 -52.3978 -5.72412 0.0 110.522 0.0 27.4706 17.65526 -16.2569 0.0 -23.37664 0.0 
  -0.6082509994506836 0.8475430297851563 6.698270263671875 1.86949 59.7977 2.19575 5.81725 -4.49469 -19.2983 -25.1968 36.7075 29.324 8.79097 55.928 -3.43409 -75.1658 -77.4597 -59.4222 -114.3514 -2.17279 1.77906 -43.6324 -12.1375 -358.765 0.0 72.2535 0.0 8.96071 -15.2969 384.551 0.0 0.0 0.0 0.0 0.0 0.0 118.7269 -2.91296 0.661361 35.8914 -1.96333 -26.4508 0.0 62.2137 0.0 -12.8727 -1.74875 4.85175 0.0 0.0 0.0 0.0 0.0 0.0 -7.93257 -42.9251 -11.22 0.0 83.5598 0.0 -17.2731 6.69283 7.75078 0.0 -12.9775 0.0 9.37104 -52.2391 -5.62393 0.0 110.155 0.0 27.2003 17.8638 -16.9425 0.0 -23.24924 0.0 
  -0.6041569900512695 0.8447699737548828 6.6989599609375 1.91491 59.9211 2.29764 5.96338 -4.40835 -19.185 -25.1968 36.7773 29.5452 4.2719 56.8946 1.87832 -73.1285 -76.9556 -56.4411 -114.503204 -2.23072 1.80864 -43.5246 -11.8872 -358.12 0.0 72.4023 0.0 9.40075 -15.2363 384.492 0.0 0.0 0.0 0.0 0.0 0.0 118.5726 -2.84858 0.629792 35.8416 -2.07784 -26.5342 0.0 62.2974 0.0 -13.1462 -1.90485 4.99052 0.0 0.0 0.0 0.0 0.0 0.0 -8.29476 -43.067 -11.7163 0.0 84.8134 0.0 -16.8571 6.0736303 7.94574 0.0 -12.90743 0.0 9.19686 -52.0094 -5.48977 0.0 109.697 0.0 26.8709 18.064621 -17.2236 0.0 -23.32312 0.0 
  -0.5996590042114258 0.8417060089111328 6.700020141601563 1.89137 60.0923 2.4637 6.20377 -4.38562 -19.025 -25.2889 36.8652 29.7961 0.141959 57.5263 6.66363 -71.0201 -76.4589 -53.3458 -114.617004 -2.29039 1.74188 -43.5086 -11.6379 -357.564 0.0 72.3888 0.0 9.59241 -15.0556 384.38 0.0 0.0 0.0 0.0 0.0 0.0 118.4715 -2.83971 0.536608 35.7687 -2.08981 -26.521 0.0 62.3273 0.0 -13.3002 -2.0101 5.82166 0.0 0.0 0.0 0.0 0.0 0.0 -8.59053 -43.2917 -12.1074 0.0 86.0519 0.0 -16.337 5.4727097 8.1926 0.0 -12.91533 0.0 9.1107 -51.7201 -5.17047 0.0 109.118 0.0 27.2513 18.22605 -17.1894 0.0 -23.19069 0.0 
  -0.5956269836425782 0.8383609771728515 6.701920166015625 1.80437 60.256 2.72634 6.43249 -4.38146 -18.9317 -25.3013 36.9955 30.0417 -4.07024 57.9859 11.4724 -69.2734 -75.8988 -50.7255 -114.8357 -2.33956 1.63617 -43.4982 -11.4225 -357.062 0.0 72.2468 0.0 10.216 -14.7651 384.018 0.0 0.0 0.0 0.0 0.0 0.0 118.3293 -2.78046 0.451251 35.7381 -2.15261 -26.4278 0.0 62.254 0.0 -13.7907 -1.90907 5.59584 0.0 0.0 0.0 0.0 0.0 0.0 -8.85235 -43.5335 -12.4541 0.0 87.2374 0.0 -15.9821 5.0165596 8.45206 0.0 -12.86134 0.0 8.98937 -51.3044 -4.8698 0.0 108.254 0.0 27.1129 18.2155 -16.7695 0.0 -24.6633 0.0 
  -0.5917319869995117 0.8360690307617188 6.702949829101563 1.74852 60.3922 2.89043 6.68684 -4.28655 -18.7699 -25.3524 37.0652 30.2846 -7.99883 58.2477 15.9479 -68.0497 -75.4113 -48.5378 -115.0232 -2.42633 1.57606 -43.5894 -11.1363 -356.875 0.0 72.0218 0.0 10.3196 -14.4906 383.389 0.0 0.0 0.0 0.0 0.0 0.0 118.201996 -2.82663 0.443811 35.728 -2.11091 -26.3742 0.0 62.1335 0.0 -13.925 -1.96239 4.67763 0.0 0.0 0.0 0.0 0.0 0.0 -9.03594 -43.7828 -12.6524 0.0 88.3985 0.0 -15.8045 4.7219 8.62136 0.0 -12.93853 0.0 9.05025 -50.8293 -4.31698 0.0 107.318 0.0 27.5512 17.99701 -16.3711 0.0 -24.535679 0.0 
  -0.5920100021362305 0.8281189727783204 6.70427978515625 1.64579 60.5394 3.10939 6.77819 -4.22289 -18.7283 -25.245 37.194 30.5445 -11.5039 58.2858 19.8881 -66.4698 -74.8814 -45.7349 -115.315 -2.70224 1.47258 -43.6344 -10.7497 -356.609 0.0 71.6756 0.0 10.8485 -14.3047 382.293 0.0 0.0 0.0 0.0 0.0 0.0 118.052 -2.89241 0.471753 35.6611 -2.06281 -26.5384 0.0 62.0353 0.0 -14.7351 -1.77095 5.1014 0.0 0.0 0.0 0.0 0.0 0.0 -9.08784 -44.1286 -12.677 0.0 89.6595 0.0 -15.5895 4.5165997 8.66082 0.0 -12.79678 0.0 9.1978 -50.3742 -3.71416 0.0 106.409 0.0 28.184 17.62783 -15.8491 0.0 -23.74205 0.0 
  -0.5900859832763672 0.8242109680175781 6.705709838867188 1.86454 60.7574 3.13207 6.83136 -4.1913 -18.6655 -25.1638 37.1702 30.6573 -15.5387 58.2402 24.465 -65.7674 -74.3426 -44.8215 -115.515396 -2.74648 1.37654 -43.7735 -10.5632 -356.484 0.0 71.2934 0.0 11.217 -14.2863 381.472 0.0 0.0 0.0 0.0 0.0 0.0 117.9981 -2.85163 0.382498 35.5313 -2.04165 -26.4738 0.0 61.9923 0.0 -14.3793 -2.20899 8.572 0.0 0.0 0.0 0.0 0.0 0.0 -9.46034 -44.4286 -12.9694 0.0 90.6918 0.0 -15.8921 4.3124 8.39489 0.0 -12.840179 0.0 9.04099 -50.0259 -3.27496 0.0 105.516 0.0 28.4489 17.28748 -15.2813 0.0 -23.15261 0.0 
  -0.5888309860229493 0.8194619750976563 6.707540283203125 2.09934 61.0174 3.15304 6.92205 -4.18105 -18.5922 -25.213 37.1521 30.7047 -18.9078 58.0126 28.292 -64.8741 -73.8827 -42.8316 -115.673996 -2.86526 1.2509 -43.8927 -10.3162 -356.455 0.0 70.9398 0.0 11.3523 -14.1383 380.859 0.0 0.0 0.0 0.0 0.0 0.0 118.0167 -2.85797 0.342466 35.4371 -1.86068 -26.5315 0.0 61.837 0.0 -14.9434 -1.98619 9.30244 0.0 0.0 0.0 0.0 0.0 0.0 -9.8302 -44.8061 -13.2503 0.0 91.7021 0.0 -16.2111 4.3261003 8.01507 0.0 -12.72489 0.0 8.88679 -49.7776 -2.8958 0.0 104.608 0.0 28.0711 17.47274 -15.1727 0.0 -23.06748 0.0 
  -0.5908409881591797 0.8101129913330078 6.708629760742188 2.24541 61.2224 3.27515 6.95729 -4.17609 -18.5619 -25.1365 37.2107 30.8676 -21.8335 57.5388 31.5199 -63.996 -73.2471 -40.9458 -115.7514 -2.81697 1.35078 -44.1074 -10.0218 -356.487 0.0 70.633 0.0 11.5675 -13.9331 380.642 0.0 0.0 0.0 0.0 0.0 0.0 117.8738 -2.88179 0.348955 35.5635 -1.83353 -26.4251 0.0 61.7364 0.0 -15.1918 -2.22272 8.98563 0.0 0.0 0.0 0.0 0.0 0.0 -10.0574 -45.2326 -13.3958 0.0 92.8007 0.0 -16.3601 4.6113997 7.62523 0.0 -12.80843 0.0 8.81282 -49.5002 -2.51933 0.0 103.76 0.0 27.9195 17.53402 -14.9995 0.0 -22.82148 0.0 
  -0.5913859939575196 0.808936996459961 6.709569702148437 2.51402 61.5075 3.33103 6.9895 -4.07493 -18.5716 -25.0084 37.1916 30.8811 -24.9184 56.8315 34.9265 -63.7345 -72.5385 -39.7983 -115.8686 -2.64971 1.45566 -44.258 -9.79278 -356.551 0.0 70.3542 0.0 12.1089 -13.542 380.956 0.0 0.0 0.0 0.0 0.0 0.0 117.8501 -2.78258 0.396647 35.5032 -1.87943 -26.2798 0.0 61.7638 0.0 -15.2071 -2.49526 10.0106 0.0 0.0 0.0 0.0 0.0 0.0 -10.542 -45.6494 -13.8669 0.0 93.6696 0.0 -16.7089 5.0650797 7.14877 0.0 -13.19865 0.0 8.83115 -49.2886 -1.88566 0.0 102.882 0.0 28.8551 16.92568 -14.3293 0.0 -22.83722 0.0 
  -0.5971020126342773 0.8055069732666016 6.709180297851563 2.24142 61.6213 3.60597 7.13309 -3.74346 -18.4992 -24.7344 37.1594 31.0376 -27.9337 55.9182 38.2795 -63.5263 -71.7694 -38.7426 -115.9917 -2.46651 1.59785 -44.4048 -9.52978 -356.584 0.0 70.0647 0.0 12.7433 -13.1536 381.208 0.0 0.0 0.0 0.0 0.0 0.0 117.7982 -2.71511 0.39473 35.4221 -1.8327 -26.1121 0.0 61.7629 0.0 -15.852 -2.43043 11.1278 0.0 0.0 0.0 0.0 0.0 0.0 -10.3592 -46.0837 -13.8028 0.0 94.7181 0.0 -17.4326 5.38284 6.43936 0.0 -12.95633 0.0 9.40084 -48.9463 -0.953819 0.0 102.015 0.0 30.408 15.757155 -13.2595 0.0 -23.03562 0.0 
  -0.6008269882202149 0.7979859924316406 6.7093701171875 2.23143 61.8546 3.73313 7.14891 -3.56857 -18.507 -24.4427 37.1945 31.2113 -30.6453 54.7404 41.2744 -63.1922 -70.8293 -37.5003 -116.0848 -2.34224 1.62993 -44.5514 -9.24923 -356.403 0.0 69.7723 0.0 13.306 -13.012 381.318 0.0 0.0 0.0 0.0 0.0 0.0 117.6825 -2.65198 0.363637 35.4115 -1.82524 -25.8544 0.0 61.8024 0.0 -16.3319 -2.66052 9.46496 0.0 0.0 0.0 0.0 0.0 0.0 -10.4575 -46.5906 -13.9469 0.0 95.6923 0.0 -18.0877 5.6035805 5.67019 0.0 -12.78702 0.0 9.77356 -48.9195 -0.195942 0.0 101.398 0.0 31.8878 14.997019 -12.3619 0.0 -23.219059 0.0 
